<svg width="3063" height="3382" xmlns="http://www.w3.org/2000/svg" xmlns:xlink="http://www.w3.org/1999/xlink" xml:space="preserve" overflow="hidden"><g transform="translate(-335 -54)"><g><g><g><path d="M75.7083 269.917 75.7083 46.0833 167.875 46.0833 167.875 115.208 240.292 115.208 240.292 269.917 75.7083 269.917ZM187.625 54.3125 228.771 95.4583 187.625 95.4583 187.625 54.3125ZM187.625 26.3333 55.9583 26.3333 55.9583 289.667 260.042 289.667 260.042 98.75 187.625 26.3333Z" transform="matrix(1 0 0 1 479 1236)"/></g></g></g><text font-family="Calibri,Calibri_MSFontService,sans-serif" font-style="italic" font-weight="400" font-size="55" transform="matrix(1 0 0 1 535.86 1584)">extracted</text><text font-family="Calibri,Calibri_MSFontService,sans-serif" font-style="italic" font-weight="400" font-size="55" transform="matrix(1 0 0 1 549.266 1650)">features</text><text font-family="Calibri,Calibri_MSFontService,sans-serif" font-style="italic" font-weight="400" font-size="55" transform="matrix(1 0 0 1 592.395 1716)">(</text><text font-family="Calibri,Calibri_MSFontService,sans-serif" font-style="italic" font-weight="400" font-size="55" transform="matrix(1 0 0 1 609.01 1716)">tsv</text><text font-family="Calibri,Calibri_MSFontService,sans-serif" font-style="italic" font-weight="400" font-size="55" transform="matrix(1 0 0 1 672.581 1716)">)</text><path d="M11.4577-0.119969 15.5195 387.806C15.5858 394.134 10.5097 399.318 4.18177 399.384-2.14614 399.45-7.32965 394.374-7.3959 388.046L-11.4577 0.119969C-11.524-6.20795-6.44789-11.3914-0.119969-11.4577 6.20795-11.524 11.3914-6.44789 11.4577-0.119969ZM38.315 376.109 4.66165 445.215-30.4313 376.829Z" transform="matrix(-1 0 0 1 641.162 1750.5)"/><rect x="437.5" y="2195.5" width="398" height="316" stroke="#000000" stroke-width="4.58333" stroke-miterlimit="8" fill="#ED7D31"/><text font-family="Calibri,Calibri_MSFontService,sans-serif" font-weight="700" font-size="64" transform="matrix(1 0 0 1 443.826 2475)">POI ANALYSER</text><g><g><g><path d="M22.6042 76.8541 38.4271 76.8541 38.4271 85.8958 22.6042 85.8958Z" transform="matrix(1 0 0 1 523 2209)"/><path d="M22.6042 58.7708 38.4271 58.7708 38.4271 67.8125 22.6042 67.8125Z" transform="matrix(1 0 0 1 523 2209)"/><path d="M22.6042 94.9375 38.4271 94.9375 38.4271 103.979 22.6042 103.979Z" transform="matrix(1 0 0 1 523 2209)"/><path d="M22.6042 149.187 38.4271 149.187 38.4271 158.229 22.6042 158.229Z" transform="matrix(1 0 0 1 523 2209)"/><path d="M22.6042 131.104 38.4271 131.104 38.4271 140.146 22.6042 140.146Z" transform="matrix(1 0 0 1 523 2209)"/><path d="M22.6042 113.021 38.4271 113.021 38.4271 122.062 22.6042 122.062Z" transform="matrix(1 0 0 1 523 2209)"/><path d="M178.573 131.104 194.396 131.104 194.396 140.146 178.573 140.146Z" transform="matrix(1 0 0 1 523 2209)"/><path d="M178.573 149.187 194.396 149.187 194.396 158.229 178.573 158.229Z" transform="matrix(1 0 0 1 523 2209)"/><path d="M178.573 113.021 194.396 113.021 194.396 122.062 178.573 122.062Z" transform="matrix(1 0 0 1 523 2209)"/><path d="M178.573 58.7708 194.396 58.7708 194.396 67.8125 178.573 67.8125Z" transform="matrix(1 0 0 1 523 2209)"/><path d="M178.573 94.9375 194.396 94.9375 194.396 103.979 178.573 103.979Z" transform="matrix(1 0 0 1 523 2209)"/><path d="M178.573 76.8541 194.396 76.8541 194.396 85.8958 178.573 85.8958Z" transform="matrix(1 0 0 1 523 2209)"/><path d="M113.021 22.6042 122.062 22.6042 122.062 38.4271 113.021 38.4271Z" transform="matrix(1 0 0 1 523 2209)"/><path d="M149.187 22.6042 158.229 22.6042 158.229 38.4271 149.187 38.4271Z" transform="matrix(1 0 0 1 523 2209)"/><path d="M131.104 22.6042 140.146 22.6042 140.146 38.4271 131.104 38.4271Z" transform="matrix(1 0 0 1 523 2209)"/><path d="M94.9375 22.6042 103.979 22.6042 103.979 38.4271 94.9375 38.4271Z" transform="matrix(1 0 0 1 523 2209)"/><path d="M58.7708 22.6042 67.8125 22.6042 67.8125 38.4271 58.7708 38.4271Z" transform="matrix(1 0 0 1 523 2209)"/><path d="M76.8541 22.6042 85.8958 22.6042 85.8958 38.4271 76.8541 38.4271Z" transform="matrix(1 0 0 1 523 2209)"/><path d="M76.8541 178.573 85.8958 178.573 85.8958 194.396 76.8541 194.396Z" transform="matrix(1 0 0 1 523 2209)"/><path d="M58.7708 178.573 67.8125 178.573 67.8125 194.396 58.7708 194.396Z" transform="matrix(1 0 0 1 523 2209)"/><path d="M94.9375 178.573 103.979 178.573 103.979 194.396 94.9375 194.396Z" transform="matrix(1 0 0 1 523 2209)"/><path d="M113.021 178.573 122.062 178.573 122.062 194.396 113.021 194.396Z" transform="matrix(1 0 0 1 523 2209)"/><path d="M131.104 178.573 140.146 178.573 140.146 194.396 131.104 194.396Z" transform="matrix(1 0 0 1 523 2209)"/><path d="M149.187 178.573 158.229 178.573 158.229 194.396 149.187 194.396Z" transform="matrix(1 0 0 1 523 2209)"/><path d="M79.1145 79.1145 137.885 79.1145 137.885 137.885 79.1145 137.885Z" transform="matrix(1 0 0 1 523 2209)"/><path d="M160.49 47.4687 56.5104 47.4687C51.5169 47.4687 47.4687 51.5169 47.4687 56.5104L47.4687 160.49C47.4687 165.483 51.5169 169.531 56.5104 169.531L160.49 169.531C165.483 169.531 169.531 165.483 169.531 160.49L169.531 56.5104C169.531 51.5169 165.483 47.4687 160.49 47.4687ZM146.927 146.927 70.0729 146.927 70.0729 70.0729 146.927 70.0729Z" transform="matrix(1 0 0 1 523 2209)"/></g></g></g><g><g><g><path d="M43.6041 155.458 43.6041 26.5416 96.6874 26.5416 96.6874 66.3541 138.396 66.3541 138.396 155.458 43.6041 155.458ZM108.062 31.2812 131.76 54.9791 108.062 54.9791 108.062 31.2812ZM108.062 15.1667 32.2291 15.1667 32.2291 166.833 149.771 166.833 149.771 56.8749 108.062 15.1667Z" transform="matrix(1 0 0 1.0055 946 1383)"/></g></g></g><text font-family="Calibri,Calibri_MSFontService,sans-serif" font-style="italic" font-weight="400" font-size="55" transform="matrix(1 0 0 1 954.743 1633)">bed file</text><path d="M0 0 0.000360892 127.998" stroke="#000000" stroke-width="22.9167" stroke-linecap="round" stroke-miterlimit="8" fill="none" fill-rule="evenodd" transform="matrix(1 0 0 -1 1036.5 1794.5)"/><path d="M1036.69 1794.93 642.5 1794.5" stroke="#000000" stroke-width="22.9167" stroke-linecap="round" stroke-miterlimit="8" fill="none" fill-rule="evenodd"/><g><g><g><path d="M43.6041 155.458 43.6041 26.5416 96.6874 26.5416 96.6874 66.3541 138.396 66.3541 138.396 155.458 43.6041 155.458ZM108.062 31.2812 131.76 54.9791 108.062 54.9791 108.062 31.2812ZM108.062 15.1667 32.2291 15.1667 32.2291 166.833 149.771 166.833 149.771 56.8749 108.062 15.1667Z" transform="matrix(1 0 0 1 547 2993)"/></g></g></g><text font-family="Calibri,Calibri_MSFontService,sans-serif" font-style="italic" font-weight="400" font-size="55" transform="matrix(1 0 0 1 381.05 3240)">category</text><text font-family="Calibri,Calibri_MSFontService,sans-serif" font-style="italic" font-weight="400" font-size="55" transform="matrix(1 0 0 1 575.773 3240)">-</text><text font-family="Calibri,Calibri_MSFontService,sans-serif" font-style="italic" font-weight="400" font-size="55" transform="matrix(1 0 0 1 592.388 3240)">wise analysis</text><text font-family="Calibri,Calibri_MSFontService,sans-serif" font-style="italic" font-weight="400" font-size="55" transform="matrix(1 0 0 1 563.467 3306)">(html)</text><path d="M647.958 2511.44 650.012 2936 627.095 2936.11 625.042 2511.56ZM672.873 2924.43 638.831 2993.34 604.124 2924.76Z"/><rect x="339.5" y="1100.5" width="867" height="2327" stroke="#000000" stroke-width="9.16667" stroke-miterlimit="8" fill="none"/><rect x="1010.5" y="282.5" width="796" height="480" stroke="#000000" stroke-width="4.58333" stroke-miterlimit="8" fill="#ED7D31"/><g><g><g><path d="M86.7292 309.208 86.7292 52.7917 192.312 52.7917 192.312 131.979 275.271 131.979 275.271 309.208 86.7292 309.208ZM214.937 62.2187 262.073 109.354 214.937 109.354 214.937 62.2187ZM214.937 30.1667 64.1042 30.1667 64.1042 331.833 297.896 331.833 297.896 113.125 214.937 30.1667Z" transform="matrix(1.00276 0 0 1 352 83.9999)"/></g></g></g><text font-family="Calibri,Calibri_MSFontService,sans-serif" font-style="italic" font-weight="400" font-size="92" transform="matrix(1 0 0 1 420.925 501)">pileup</text><g><g><g><path d="M66.125 235.75 66.125 40.25 146.625 40.25 146.625 100.625 209.875 100.625 209.875 235.75 66.125 235.75ZM163.875 47.4375 199.813 83.375 163.875 83.375 163.875 47.4375ZM163.875 23 48.875 23 48.875 253 227.125 253 227.125 86.25 163.875 23Z" transform="matrix(1 0 0 1.00362 400 529)"/></g></g></g><text font-family="Calibri,Calibri_MSFontService,sans-serif" font-style="italic" font-weight="400" font-size="73" transform="matrix(1 0 0 1 389.358 891)">reference </text><text font-family="Calibri,Calibri_MSFontService,sans-serif" font-style="italic" font-weight="400" font-size="73" transform="matrix(1 0 0 1 440.577 979)">(</text><text font-family="Calibri,Calibri_MSFontService,sans-serif" font-style="italic" font-weight="400" font-size="73" transform="matrix(1 0 0 1 462.921 979)">fasta</text><text font-family="Calibri,Calibri_MSFontService,sans-serif" font-style="italic" font-weight="400" font-size="73" transform="matrix(1 0 0 1 611.444 979)">)</text><text font-family="Calibri,Calibri_MSFontService,sans-serif" font-weight="700" font-size="83" transform="matrix(1 0 0 1 1080.1 710)">PILEUP EXTRACTOR</text><g><g><g><path d="M1277.38 430.875 1301.44 430.875 1301.44 444.625 1277.38 444.625Z"/><path d="M1277.38 403.375 1301.44 403.375 1301.44 417.125 1277.38 417.125Z"/><path d="M1277.38 458.375 1301.44 458.375 1301.44 472.125 1277.38 472.125Z"/><path d="M1277.38 540.875 1301.44 540.875 1301.44 554.625 1277.38 554.625Z"/><path d="M1277.38 513.375 1301.44 513.375 1301.44 527.125 1277.38 527.125Z"/><path d="M1277.38 485.875 1301.44 485.875 1301.44 499.625 1277.38 499.625Z"/><path d="M1514.56 513.375 1538.62 513.375 1538.62 527.125 1514.56 527.125Z"/><path d="M1514.56 540.875 1538.62 540.875 1538.62 554.625 1514.56 554.625Z"/><path d="M1514.56 485.875 1538.62 485.875 1538.62 499.625 1514.56 499.625Z"/><path d="M1514.56 403.375 1538.62 403.375 1538.62 417.125 1514.56 417.125Z"/><path d="M1514.56 458.375 1538.62 458.375 1538.62 472.125 1514.56 472.125Z"/><path d="M1514.56 430.875 1538.62 430.875 1538.62 444.625 1514.56 444.625Z"/><path d="M1414.88 348.375 1428.62 348.375 1428.62 372.437 1414.88 372.437Z"/><path d="M1469.88 348.375 1483.62 348.375 1483.62 372.437 1469.88 372.437Z"/><path d="M1442.38 348.375 1456.12 348.375 1456.12 372.437 1442.38 372.437Z"/><path d="M1387.38 348.375 1401.12 348.375 1401.12 372.437 1387.38 372.437Z"/><path d="M1332.38 348.375 1346.12 348.375 1346.12 372.437 1332.38 372.437Z"/><path d="M1359.88 348.375 1373.62 348.375 1373.62 372.437 1359.88 372.437Z"/><path d="M1359.88 585.562 1373.62 585.562 1373.62 609.625 1359.88 609.625Z"/><path d="M1332.38 585.562 1346.12 585.562 1346.12 609.625 1332.38 609.625Z"/><path d="M1387.38 585.562 1401.12 585.562 1401.12 609.625 1387.38 609.625Z"/><path d="M1414.88 585.562 1428.62 585.562 1428.62 609.625 1414.88 609.625Z"/><path d="M1442.38 585.562 1456.12 585.562 1456.12 609.625 1442.38 609.625Z"/><path d="M1469.88 585.562 1483.62 585.562 1483.62 609.625 1469.88 609.625Z"/><path d="M1363.31 434.312 1452.69 434.312 1452.69 523.687 1363.31 523.687Z"/><path d="M1487.06 386.187 1328.94 386.187C1321.34 386.187 1315.19 392.344 1315.19 399.937L1315.19 558.062C1315.19 565.656 1321.34 571.812 1328.94 571.812L1487.06 571.812C1494.66 571.812 1500.81 565.656 1500.81 558.062L1500.81 399.937C1500.81 392.344 1494.66 386.187 1487.06 386.187ZM1466.44 537.437 1349.56 537.437 1349.56 420.562 1466.44 420.562Z"/></g></g></g><path d="M796.5 511.042 953.602 511.042 953.602 533.959 796.5 533.958ZM942.144 488.125 1010.89 522.5 942.144 556.875Z"/><path d="M0 0 0.705905 402.135" stroke="#000000" stroke-width="22.9167" stroke-linecap="round" stroke-miterlimit="8" fill="none" fill-rule="evenodd" transform="matrix(-1 0 0 1 796.206 265.5)"/><path d="M0 0 118.425 0.000360892" stroke="#000000" stroke-width="22.9167" stroke-linecap="round" stroke-miterlimit="8" fill="none" fill-rule="evenodd" transform="matrix(-1 0 0 1 794.925 667.5)"/><path d="M0 0 79.6969 0.000360892" stroke="#000000" stroke-width="22.9167" stroke-linecap="round" stroke-miterlimit="8" fill="none" fill-rule="evenodd" transform="matrix(-1 0 0 1 795.197 265.5)"/><rect x="1993.5" y="641.5" width="569" height="300" stroke="#000000" stroke-width="4.58333" stroke-miterlimit="8" fill="#ED7D31"/><text font-family="Calibri,Calibri_MSFontService,sans-serif" font-weight="700" font-size="60" transform="matrix(1 0 0 1 2026.02 908)">SUMMARY CREATOR</text><g><g><g><path d="M21.875 74.375 37.1875 74.375 37.1875 83.125 21.875 83.125Z" transform="matrix(1.00476 0 0 1 2172 641)"/><path d="M21.875 56.875 37.1875 56.875 37.1875 65.625 21.875 65.625Z" transform="matrix(1.00476 0 0 1 2172 641)"/><path d="M21.875 91.875 37.1875 91.875 37.1875 100.625 21.875 100.625Z" transform="matrix(1.00476 0 0 1 2172 641)"/><path d="M21.875 144.375 37.1875 144.375 37.1875 153.125 21.875 153.125Z" transform="matrix(1.00476 0 0 1 2172 641)"/><path d="M21.875 126.875 37.1875 126.875 37.1875 135.625 21.875 135.625Z" transform="matrix(1.00476 0 0 1 2172 641)"/><path d="M21.875 109.375 37.1875 109.375 37.1875 118.125 21.875 118.125Z" transform="matrix(1.00476 0 0 1 2172 641)"/><path d="M172.813 126.875 188.125 126.875 188.125 135.625 172.813 135.625Z" transform="matrix(1.00476 0 0 1 2172 641)"/><path d="M172.813 144.375 188.125 144.375 188.125 153.125 172.813 153.125Z" transform="matrix(1.00476 0 0 1 2172 641)"/><path d="M172.813 109.375 188.125 109.375 188.125 118.125 172.813 118.125Z" transform="matrix(1.00476 0 0 1 2172 641)"/><path d="M172.813 56.875 188.125 56.875 188.125 65.625 172.813 65.625Z" transform="matrix(1.00476 0 0 1 2172 641)"/><path d="M172.813 91.875 188.125 91.875 188.125 100.625 172.813 100.625Z" transform="matrix(1.00476 0 0 1 2172 641)"/><path d="M172.813 74.375 188.125 74.375 188.125 83.125 172.813 83.125Z" transform="matrix(1.00476 0 0 1 2172 641)"/><path d="M109.375 21.875 118.125 21.875 118.125 37.1875 109.375 37.1875Z" transform="matrix(1.00476 0 0 1 2172 641)"/><path d="M144.375 21.875 153.125 21.875 153.125 37.1875 144.375 37.1875Z" transform="matrix(1.00476 0 0 1 2172 641)"/><path d="M126.875 21.875 135.625 21.875 135.625 37.1875 126.875 37.1875Z" transform="matrix(1.00476 0 0 1 2172 641)"/><path d="M91.875 21.875 100.625 21.875 100.625 37.1875 91.875 37.1875Z" transform="matrix(1.00476 0 0 1 2172 641)"/><path d="M56.875 21.875 65.625 21.875 65.625 37.1875 56.875 37.1875Z" transform="matrix(1.00476 0 0 1 2172 641)"/><path d="M74.375 21.875 83.125 21.875 83.125 37.1875 74.375 37.1875Z" transform="matrix(1.00476 0 0 1 2172 641)"/><path d="M74.375 172.813 83.125 172.813 83.125 188.125 74.375 188.125Z" transform="matrix(1.00476 0 0 1 2172 641)"/><path d="M56.875 172.813 65.625 172.813 65.625 188.125 56.875 188.125Z" transform="matrix(1.00476 0 0 1 2172 641)"/><path d="M91.875 172.813 100.625 172.813 100.625 188.125 91.875 188.125Z" transform="matrix(1.00476 0 0 1 2172 641)"/><path d="M109.375 172.813 118.125 172.813 118.125 188.125 109.375 188.125Z" transform="matrix(1.00476 0 0 1 2172 641)"/><path d="M126.875 172.813 135.625 172.813 135.625 188.125 126.875 188.125Z" transform="matrix(1.00476 0 0 1 2172 641)"/><path d="M144.375 172.813 153.125 172.813 153.125 188.125 144.375 188.125Z" transform="matrix(1.00476 0 0 1 2172 641)"/><path d="M76.5625 76.5625 133.438 76.5625 133.438 133.438 76.5625 133.438Z" transform="matrix(1.00476 0 0 1 2172 641)"/><path d="M155.313 45.9375 54.6875 45.9375C49.8551 45.9375 45.9375 49.8551 45.9375 54.6875L45.9375 155.313C45.9375 160.145 49.8551 164.063 54.6875 164.063L155.313 164.063C160.145 164.063 164.063 160.145 164.063 155.313L164.063 54.6875C164.063 49.8551 160.145 45.9375 155.313 45.9375ZM142.188 142.188 67.8125 142.188 67.8125 67.8125 142.188 67.8125Z" transform="matrix(1.00476 0 0 1 2172 641)"/></g></g></g><g><g><g><path d="M2869.36 888.604 2869.36 692.396 2950.16 692.396 2950.16 752.99 3013.64 752.99 3013.64 888.604 2869.36 888.604ZM2967.47 699.609 3003.54 735.677 2967.47 735.677 2967.47 699.609ZM2967.47 675.083 2852.05 675.083 2852.05 905.917 3030.95 905.917 3030.95 738.563 2967.47 675.083Z"/></g></g></g><text font-family="Calibri,Calibri_MSFontService,sans-serif" font-style="italic" font-weight="400" font-size="73" transform="matrix(1 0 0 1 2703.35 973)">summary (html)</text><text font-family="Calibri,Calibri_MSFontService,sans-serif" font-style="italic" font-weight="400" font-size="83" transform="matrix(1 0 0 1 2690.83 516)">extracted features</text><text font-family="Calibri,Calibri_MSFontService,sans-serif" font-style="italic" font-weight="400" font-size="83" transform="matrix(1 0 0 1 2922.36 615)">(</text><text font-family="Calibri,Calibri_MSFontService,sans-serif" font-style="italic" font-weight="400" font-size="83" transform="matrix(1 0 0 1 2947.57 615)">tsv</text><text font-family="Calibri,Calibri_MSFontService,sans-serif" font-style="italic" font-weight="400" font-size="83" transform="matrix(1 0 0 1 3042.92 615)">)</text><g><g><g><path d="M2900.97 410.063 2900.97 152.938 3006.84 152.938 3006.84 232.344 3090.03 232.344 3090.03 410.063 2900.97 410.063ZM3029.53 162.391 3076.8 209.656 3029.53 209.656 3029.53 162.391ZM3029.53 130.25 2878.28 130.25 2878.28 432.75 3112.72 432.75 3112.72 213.438 3029.53 130.25Z"/></g></g></g><path d="M1806.5 511.042 1911.68 511.042 1911.68 791.598 1900.22 780.14 1936.65 780.14 1936.65 803.057 1888.76 803.057 1888.76 522.5 1900.22 533.958 1806.5 533.958ZM1925.19 757.223 1993.94 791.598 1925.19 825.973Z"/><path d="M0-11.4583 515.606-11.4583 515.606 240.138 504.148 228.68 951.004 228.68 951.004 251.596 492.689 251.596 492.689 0 504.148 11.4583 0 11.4583ZM939.545 205.763 1008.3 240.138 939.545 274.513Z" transform="matrix(1 0 0 -1 1806.5 522.638)"/><path d="M1.71698e-05-11.4583 183.551-11.4581 183.551 11.4586-1.71698e-05 11.4583ZM172.093-34.3747 240.843 0.000360892 172.093 34.3753Z" transform="matrix(1 0 0 -1 2562.5 791.501)"/><rect x="339.5" y="58.4999" width="3044" height="974" stroke="#000000" stroke-width="9.16667" stroke-miterlimit="8" fill="none"/><g><g><g><path d="M1567.23 1378.21 1567.23 1155.79 1658.81 1155.79 1658.81 1224.48 1730.77 1224.48 1730.77 1378.21 1567.23 1378.21ZM1678.44 1163.97 1719.32 1204.85 1678.44 1204.85 1678.44 1163.97ZM1678.44 1136.17 1547.6 1136.17 1547.6 1397.83 1750.4 1397.83 1750.4 1208.12 1678.44 1136.17Z"/></g></g></g><text font-family="Calibri,Calibri_MSFontService,sans-serif" font-style="italic" font-weight="400" font-size="55" transform="matrix(1 0 0 1 1449.81 1457)">extracted features</text><text font-family="Calibri,Calibri_MSFontService,sans-serif" font-style="italic" font-weight="400" font-size="55" transform="matrix(1 0 0 1 1550.3 1523)">sample A</text><g><g><g><path d="M75.2292 268.208 75.2292 45.7917 166.813 45.7917 166.813 114.479 238.771 114.479 238.771 268.208 75.2292 268.208ZM186.438 53.9688 227.323 94.8542 186.438 94.8542 186.438 53.9688ZM186.438 26.1667 55.6042 26.1667 55.6042 287.834 258.396 287.834 258.396 98.1251 186.438 26.1667Z" transform="matrix(1.00318 0 0 1 2103 1110)"/></g></g></g><text font-family="Calibri,Calibri_MSFontService,sans-serif" font-style="italic" font-weight="400" font-size="55" transform="matrix(1 0 0 1 2061.41 1457)">extracted features</text><text font-family="Calibri,Calibri_MSFontService,sans-serif" font-style="italic" font-weight="400" font-size="55" transform="matrix(1 0 0 1 2163.05 1523)">sample B</text><rect x="1617.5" y="1744.5" width="739" height="315" stroke="#000000" stroke-width="4.58333" stroke-miterlimit="8" fill="#ED7D31"/><text font-family="Calibri,Calibri_MSFontService,sans-serif" font-weight="700" font-size="64" transform="matrix(1 0 0 1 1632.9 2037)">TWO</text><text font-family="Calibri,Calibri_MSFontService,sans-serif" font-weight="700" font-size="64" transform="matrix(1 0 0 1 1765.61 2037)">-</text><text font-family="Calibri,Calibri_MSFontService,sans-serif" font-weight="700" font-size="64" transform="matrix(1 0 0 1 1785.09 2037)">SAMPLE EXTRACTOR</text><g><g><g><path d="M22.5 76.5 38.25 76.5 38.25 85.4999 22.5 85.4999Z" transform="matrix(1.00463 0 0 1 1883 1765)"/><path d="M22.5 58.5 38.25 58.5 38.25 67.5 22.5 67.5Z" transform="matrix(1.00463 0 0 1 1883 1765)"/><path d="M22.5 94.4999 38.25 94.4999 38.25 103.5 22.5 103.5Z" transform="matrix(1.00463 0 0 1 1883 1765)"/><path d="M22.5 148.5 38.25 148.5 38.25 157.5 22.5 157.5Z" transform="matrix(1.00463 0 0 1 1883 1765)"/><path d="M22.5 130.5 38.25 130.5 38.25 139.5 22.5 139.5Z" transform="matrix(1.00463 0 0 1 1883 1765)"/><path d="M22.5 112.5 38.25 112.5 38.25 121.5 22.5 121.5Z" transform="matrix(1.00463 0 0 1 1883 1765)"/><path d="M177.75 130.5 193.5 130.5 193.5 139.5 177.75 139.5Z" transform="matrix(1.00463 0 0 1 1883 1765)"/><path d="M177.75 148.5 193.5 148.5 193.5 157.5 177.75 157.5Z" transform="matrix(1.00463 0 0 1 1883 1765)"/><path d="M177.75 112.5 193.5 112.5 193.5 121.5 177.75 121.5Z" transform="matrix(1.00463 0 0 1 1883 1765)"/><path d="M177.75 58.5 193.5 58.5 193.5 67.5 177.75 67.5Z" transform="matrix(1.00463 0 0 1 1883 1765)"/><path d="M177.75 94.4999 193.5 94.4999 193.5 103.5 177.75 103.5Z" transform="matrix(1.00463 0 0 1 1883 1765)"/><path d="M177.75 76.5 193.5 76.5 193.5 85.4999 177.75 85.4999Z" transform="matrix(1.00463 0 0 1 1883 1765)"/><path d="M112.5 22.5 121.5 22.5 121.5 38.25 112.5 38.25Z" transform="matrix(1.00463 0 0 1 1883 1765)"/><path d="M148.5 22.5 157.5 22.5 157.5 38.25 148.5 38.25Z" transform="matrix(1.00463 0 0 1 1883 1765)"/><path d="M130.5 22.5 139.5 22.5 139.5 38.25 130.5 38.25Z" transform="matrix(1.00463 0 0 1 1883 1765)"/><path d="M94.4999 22.5 103.5 22.5 103.5 38.25 94.4999 38.25Z" transform="matrix(1.00463 0 0 1 1883 1765)"/><path d="M58.5 22.5 67.5 22.5 67.5 38.25 58.5 38.25Z" transform="matrix(1.00463 0 0 1 1883 1765)"/><path d="M76.5 22.5 85.4999 22.5 85.4999 38.25 76.5 38.25Z" transform="matrix(1.00463 0 0 1 1883 1765)"/><path d="M76.5 177.75 85.4999 177.75 85.4999 193.5 76.5 193.5Z" transform="matrix(1.00463 0 0 1 1883 1765)"/><path d="M58.5 177.75 67.5 177.75 67.5 193.5 58.5 193.5Z" transform="matrix(1.00463 0 0 1 1883 1765)"/><path d="M94.4999 177.75 103.5 177.75 103.5 193.5 94.4999 193.5Z" transform="matrix(1.00463 0 0 1 1883 1765)"/><path d="M112.5 177.75 121.5 177.75 121.5 193.5 112.5 193.5Z" transform="matrix(1.00463 0 0 1 1883 1765)"/><path d="M130.5 177.75 139.5 177.75 139.5 193.5 130.5 193.5Z" transform="matrix(1.00463 0 0 1 1883 1765)"/><path d="M148.5 177.75 157.5 177.75 157.5 193.5 148.5 193.5Z" transform="matrix(1.00463 0 0 1 1883 1765)"/><path d="M78.7499 78.7499 137.25 78.7499 137.25 137.25 78.7499 137.25Z" transform="matrix(1.00463 0 0 1 1883 1765)"/><path d="M159.75 47.25 56.25 47.25C51.2795 47.25 47.25 51.2795 47.25 56.25L47.25 159.75C47.25 164.72 51.2795 168.75 56.25 168.75L159.75 168.75C164.72 168.75 168.75 164.72 168.75 159.75L168.75 56.25C168.75 51.2795 164.72 47.25 159.75 47.25ZM146.25 146.25 69.75 146.25 69.75 69.75 146.25 69.75Z" transform="matrix(1.00463 0 0 1 1883 1765)"/></g></g></g><g><g><g><path d="M43.3646 154.604 43.3646 26.3959 96.1563 26.3959 96.1563 65.9896 137.636 65.9896 137.636 154.604 43.3646 154.604ZM107.469 31.1094 131.037 54.6771 107.469 54.6771 107.469 31.1094ZM107.469 15.0833 32.0521 15.0833 32.0521 165.917 148.948 165.917 148.948 56.5626 107.469 15.0833Z" transform="matrix(1.00553 0 0 1 2591 1208)"/></g></g></g><text font-family="Calibri,Calibri_MSFontService,sans-serif" font-style="italic" font-weight="400" font-size="55" transform="matrix(1 0 0 1 2570.49 1457)">reference </text><text font-family="Calibri,Calibri_MSFontService,sans-serif" font-style="italic" font-weight="400" font-size="55" transform="matrix(1 0 0 1 2609.84 1523)">(</text><text font-family="Calibri,Calibri_MSFontService,sans-serif" font-style="italic" font-weight="400" font-size="55" transform="matrix(1 0 0 1 2626.46 1523)">fasta</text><text font-family="Calibri,Calibri_MSFontService,sans-serif" font-style="italic" font-weight="400" font-size="55" transform="matrix(1 0 0 1 2736.71 1523)">)</text><path d="M1997.96 1617.5 1997.96 1686.88 1975.04 1686.88 1975.04 1617.5ZM2020.88 1675.43 1986.5 1744.18 1952.13 1675.43Z"/><path d="M0 0 1029.03 0.000360892" stroke="#000000" stroke-width="22.9167" stroke-linecap="round" stroke-miterlimit="8" fill="none" fill-rule="evenodd" transform="matrix(-1 0 0 1 2682.53 1607.5)"/><path d="M0 0 0.000360892 51.5867" stroke="#000000" stroke-width="22.9167" stroke-linecap="round" stroke-miterlimit="8" fill="none" fill-rule="evenodd" transform="matrix(1 0 0 -1 1653.5 1608.09)"/><path d="M0 0 0.000360892 51.3871" stroke="#000000" stroke-width="22.9167" stroke-linecap="round" stroke-miterlimit="8" fill="none" fill-rule="evenodd" transform="matrix(1 0 0 -1 2264.5 1607.89)"/><path d="M0 0 0.000360892 51.5863" stroke="#000000" stroke-width="22.9167" stroke-linecap="round" stroke-miterlimit="8" fill="none" fill-rule="evenodd" transform="matrix(1 0 0 -1 2682.5 1608.09)"/><g><g><g><path d="M43.3646 154.604 43.3646 26.3959 96.1563 26.3959 96.1563 65.9896 137.636 65.9896 137.636 154.604 43.3646 154.604ZM107.469 31.1094 131.037 54.6771 107.469 54.6771 107.469 31.1094ZM107.469 15.0833 32.0521 15.0833 32.0521 165.917 148.948 165.917 148.948 56.5626 107.469 15.0833Z" transform="matrix(1.00553 0 0 1 2459 2129)"/></g></g></g><text font-family="Calibri,Calibri_MSFontService,sans-serif" font-style="italic" font-weight="400" font-size="55" transform="matrix(1 0 0 1 2368.83 2378)">shared positions</text><text font-family="Calibri,Calibri_MSFontService,sans-serif" font-style="italic" font-weight="400" font-size="55" transform="matrix(1 0 0 1 2491.73 2444)">(bed)</text><g><g><g><path d="M2510.36 2597.6 2510.36 2469.4 2563.16 2469.4 2563.16 2508.99 2604.64 2508.99 2604.64 2597.6 2510.36 2597.6ZM2574.47 2474.11 2598.04 2497.68 2574.47 2497.68 2574.47 2474.11ZM2574.47 2458.08 2499.05 2458.08 2499.05 2608.92 2615.95 2608.92 2615.95 2499.56 2574.47 2458.08Z"/></g></g></g><text font-family="Calibri,Calibri_MSFontService,sans-serif" font-style="italic" font-weight="400" font-size="55" transform="matrix(1 0 0 1 2387.14 2692)">A excl. </text><text font-family="Calibri,Calibri_MSFontService,sans-serif" font-style="italic" font-weight="400" font-size="55" transform="matrix(1 0 0 1 2541.74 2692)">positons</text><text font-family="Calibri,Calibri_MSFontService,sans-serif" font-style="italic" font-weight="400" font-size="55" transform="matrix(1 0 0 1 2499.04 2758)">(bed)</text><g><g><g><path d="M43.3645 154.604 43.3645 26.3958 96.1561 26.3958 96.1561 65.9895 137.635 65.9895 137.635 154.604 43.3645 154.604ZM107.469 31.1093 131.036 54.677 107.469 54.677 107.469 31.1093ZM107.469 15.0833 32.052 15.0833 32.052 165.916 148.948 165.916 148.948 56.5624 107.469 15.0833Z" transform="matrix(1 0 0 1 2472 2764)"/></g></g></g><text font-family="Calibri,Calibri_MSFontService,sans-serif" font-style="italic" font-weight="400" font-size="55" transform="matrix(1 0 0 1 2393.46 3013)">B excl. </text><text font-family="Calibri,Calibri_MSFontService,sans-serif" font-style="italic" font-weight="400" font-size="55" transform="matrix(1 0 0 1 2545.77 3013)">positons</text><text font-family="Calibri,Calibri_MSFontService,sans-serif" font-style="italic" font-weight="400" font-size="55" transform="matrix(1 0 0 1 2504.22 3079)">(bed)</text><g><g><g><path d="M1936.36 3227.6 1936.36 3099.4 1989.16 3099.4 1989.16 3138.99 2030.64 3138.99 2030.64 3227.6 1936.36 3227.6ZM2000.47 3104.11 2024.04 3127.68 2000.47 3127.68 2000.47 3104.11ZM2000.47 3088.08 1925.05 3088.08 1925.05 3238.92 2041.95 3238.92 2041.95 3129.56 2000.47 3088.08Z"/></g></g></g><text font-family="Calibri,Calibri_MSFontService,sans-serif" font-style="italic" font-weight="400" font-size="55" transform="matrix(1 0 0 1 1742.72 3322)">overview of extracted</text><text font-family="Calibri,Calibri_MSFontService,sans-serif" font-style="italic" font-weight="400" font-size="55" transform="matrix(1 0 0 1 1810.07 3388)">positions (html)</text><path d="M11.4583-0.0317654 14.1119 957.168-8.80468 957.232-11.4583 0.0317654ZM36.9967 945.646 2.81243 1014.49-31.753 945.836Z" transform="matrix(-1 0 0 1 1987.31 2059.5)"/><path d="M0.0690041-11.4581 419.131-8.93441 418.993 13.9818-0.0690041 11.4581ZM407.811-31.9197 476.353 2.86873 407.397 36.8291Z" transform="matrix(1 0 0 -1 1983.5 2223.37)"/><path d="M1983.66 2516.04 2410.06 2521.97 2409.74 2544.89 1983.34 2538.96ZM2398.92 2498.9 2467.18 2534.23 2397.96 2567.64Z"/><path d="M1983.73 2834.04 2415.31 2842.65 2414.85 2865.56 1983.27 2856.96ZM2404.31 2819.51 2472.36 2855.24 2402.94 2888.24Z"/><rect x="2907.5" y="2376.5" width="401" height="315" stroke="#000000" stroke-width="4.58333" stroke-miterlimit="8" fill="#ED7D31"/><text font-family="Calibri,Calibri_MSFontService,sans-serif" font-weight="700" font-size="64" transform="matrix(1 0 0 1 2917.44 2670)">POI ANALYSER</text><g><g><g><path d="M3019.5 2474.5 3035.25 2474.5 3035.25 2483.5 3019.5 2483.5Z"/><path d="M3019.5 2456.5 3035.25 2456.5 3035.25 2465.5 3019.5 2465.5Z"/><path d="M3019.5 2492.5 3035.25 2492.5 3035.25 2501.5 3019.5 2501.5Z"/><path d="M3019.5 2546.5 3035.25 2546.5 3035.25 2555.5 3019.5 2555.5Z"/><path d="M3019.5 2528.5 3035.25 2528.5 3035.25 2537.5 3019.5 2537.5Z"/><path d="M3019.5 2510.5 3035.25 2510.5 3035.25 2519.5 3019.5 2519.5Z"/><path d="M3174.75 2528.5 3190.5 2528.5 3190.5 2537.5 3174.75 2537.5Z"/><path d="M3174.75 2546.5 3190.5 2546.5 3190.5 2555.5 3174.75 2555.5Z"/><path d="M3174.75 2510.5 3190.5 2510.5 3190.5 2519.5 3174.75 2519.5Z"/><path d="M3174.75 2456.5 3190.5 2456.5 3190.5 2465.5 3174.75 2465.5Z"/><path d="M3174.75 2492.5 3190.5 2492.5 3190.5 2501.5 3174.75 2501.5Z"/><path d="M3174.75 2474.5 3190.5 2474.5 3190.5 2483.5 3174.75 2483.5Z"/><path d="M3109.5 2420.5 3118.5 2420.5 3118.5 2436.25 3109.5 2436.25Z"/><path d="M3145.5 2420.5 3154.5 2420.5 3154.5 2436.25 3145.5 2436.25Z"/><path d="M3127.5 2420.5 3136.5 2420.5 3136.5 2436.25 3127.5 2436.25Z"/><path d="M3091.5 2420.5 3100.5 2420.5 3100.5 2436.25 3091.5 2436.25Z"/><path d="M3055.5 2420.5 3064.5 2420.5 3064.5 2436.25 3055.5 2436.25Z"/><path d="M3073.5 2420.5 3082.5 2420.5 3082.5 2436.25 3073.5 2436.25Z"/><path d="M3073.5 2575.75 3082.5 2575.75 3082.5 2591.5 3073.5 2591.5Z"/><path d="M3055.5 2575.75 3064.5 2575.75 3064.5 2591.5 3055.5 2591.5Z"/><path d="M3091.5 2575.75 3100.5 2575.75 3100.5 2591.5 3091.5 2591.5Z"/><path d="M3109.5 2575.75 3118.5 2575.75 3118.5 2591.5 3109.5 2591.5Z"/><path d="M3127.5 2575.75 3136.5 2575.75 3136.5 2591.5 3127.5 2591.5Z"/><path d="M3145.5 2575.75 3154.5 2575.75 3154.5 2591.5 3145.5 2591.5Z"/><path d="M3075.75 2476.75 3134.25 2476.75 3134.25 2535.25 3075.75 2535.25Z"/><path d="M3156.75 2445.25 3053.25 2445.25C3048.28 2445.25 3044.25 2449.28 3044.25 2454.25L3044.25 2557.75C3044.25 2562.72 3048.28 2566.75 3053.25 2566.75L3156.75 2566.75C3161.72 2566.75 3165.75 2562.72 3165.75 2557.75L3165.75 2454.25C3165.75 2449.28 3161.72 2445.25 3156.75 2445.25ZM3143.25 2544.25 3066.75 2544.25 3066.75 2467.75 3143.25 2467.75Z"/></g></g></g><path d="M2802.61 2522.04 2850.82 2522.49 2850.6 2545.41 2802.39 2544.96ZM2839.57 2499.47 2908 2534.49 2838.93 2568.22Z"/><path d="M0 0 0.000360892 635.019" stroke="#000000" stroke-width="22.9167" stroke-linecap="round" stroke-miterlimit="8" fill="none" fill-rule="evenodd" transform="matrix(1 0 0 -1 2804.5 2855.52)"/><path d="M0 0 163.73 0.000360892" stroke="#000000" stroke-width="22.9167" stroke-linecap="round" stroke-miterlimit="8" fill="none" fill-rule="evenodd" transform="matrix(-1 0 0 1 2805.23 2220.5)"/><path d="M0 0 156.398 0.000360892" stroke="#000000" stroke-width="22.9167" stroke-linecap="round" stroke-miterlimit="8" fill="none" fill-rule="evenodd" transform="matrix(-1 0 0 1 2804.9 2534.5)"/><path d="M0 0 151.222 0.000360892" stroke="#000000" stroke-width="22.9167" stroke-linecap="round" stroke-miterlimit="8" fill="none" fill-rule="evenodd" transform="matrix(-1 0 0 1 2804.72 2855.5)"/><g><g><g><path d="M43.3645 154.604 43.3645 26.3958 96.1561 26.3958 96.1561 65.9895 137.635 65.9895 137.635 154.604 43.3645 154.604ZM107.469 31.1093 131.036 54.677 107.469 54.677 107.469 31.1093ZM107.469 15.0833 32.052 15.0833 32.052 165.916 148.948 165.916 148.948 56.5624 107.469 15.0833Z" transform="matrix(1.00553 0 0 1 3022 3073)"/></g></g></g><text font-family="Calibri,Calibri_MSFontService,sans-serif" font-style="italic" font-weight="400" font-size="55" transform="matrix(1 0 0 1 2862.32 3322)">category</text><text font-family="Calibri,Calibri_MSFontService,sans-serif" font-style="italic" font-weight="400" font-size="55" transform="matrix(1 0 0 1 3057.04 3322)">-</text><text font-family="Calibri,Calibri_MSFontService,sans-serif" font-style="italic" font-weight="400" font-size="55" transform="matrix(1 0 0 1 3073.65 3322)">wise analysis</text><text font-family="Calibri,Calibri_MSFontService,sans-serif" font-style="italic" font-weight="400" font-size="55" transform="matrix(1 0 0 1 3044.73 3388)">(html)</text><path d="M3119.96 2691.35 3124.33 3016.47 3101.42 3016.78 3097.04 2691.65ZM3147.09 3004.71 3113.65 3073.91 3078.35 3005.63Z"/><rect x="1429.5" y="1100.5" width="1954" height="2327" stroke="#000000" stroke-width="9.16667" stroke-miterlimit="8" fill="none"/><g><g><g><path d="M47.9167 170.833 47.9167 29.1667 106.25 29.1667 106.25 72.9167 152.083 72.9167 152.083 170.833 47.9167 170.833ZM118.75 34.375 144.792 60.4167 118.75 60.4167 118.75 34.375ZM118.75 16.6667 35.4167 16.6667 35.4167 183.333 164.583 183.333 164.583 62.5 118.75 16.6667Z" transform="matrix(1 0 0 1.005 3013 1976)"/></g></g></g><text font-family="Calibri,Calibri_MSFontService,sans-serif" font-style="italic" font-weight="400" font-size="55" transform="matrix(1 0 0 1 2904.97 2208)">extracted features</text><path d="M3119.96 2241.5 3119.96 2319.56C3119.96 2325.89 3114.83 2331.02 3108.5 2331.02 3102.17 2331.02 3097.04 2325.89 3097.04 2319.56L3097.04 2241.5C3097.04 2235.17 3102.17 2230.04 3108.5 2230.04 3114.83 2230.04 3119.96 2235.17 3119.96 2241.5ZM3142.88 2308.1 3108.5 2376.85 3074.13 2308.1Z"/></g></svg>